<?xml version="1.0"?>
<svg xmlns="http://www.w3.org/2000/svg" xmlns:xlink="http://www.w3.org/1999/xlink" id="Gradient" viewBox="0 0 512 512" width="512" height="512"><defs><linearGradient id="linear-gradient" x1="257.209" y1="496" x2="257.209" y2="16" gradientUnits="userSpaceOnUse"><stop offset="0" stop-color="#12c2e9"/><stop offset="0.5" stop-color="#c471ed"/><stop offset="1" stop-color="#f64f59"/></linearGradient></defs><path d="M472.044,442.413,384,198.6V64h8a24,24,0,0,0,0-48H280a24,24,0,0,0,0,48h8V198.6l-28.765,79.643A127.549,127.549,0,0,0,216,249.307V192h8a24,24,0,0,0,0-48H112a24,24,0,0,0,0,48h8v57.307a128.014,128.014,0,0,0,93.218,238.436A39.647,39.647,0,0,0,237.58,496H434.42a40,40,0,0,0,37.624-53.587ZM272,40a8.009,8.009,0,0,1,8-8H392a8,8,0,0,1,0,16H280A8.009,8.009,0,0,1,272,40ZM104,168a8.009,8.009,0,0,1,8-8H224a8,8,0,0,1,0,16H112A8.009,8.009,0,0,1,104,168ZM56,368a112.187,112.187,0,0,1,74.666-105.627A8,8,0,0,0,136,254.83V192h64v16h-8a8,8,0,0,0,0,16h8v16H176a8,8,0,0,0,0,16h24.092a8,8,0,0,0,5.242,6.373A112.014,112.014,0,1,1,56,368Zm232.3,43.753a24.027,24.027,0,1,0,5.326-19.165A128.137,128.137,0,0,0,296,368a8,8,0,1,0-1.014-15.929,127.545,127.545,0,0,0-3.92-19.154L317.7,256H354.3l62.788,181.389A8,8,0,0,1,409.53,448H267.841A127.967,127.967,0,0,0,288.3,411.753ZM304,408a8,8,0,1,1,8,8A8.009,8.009,0,0,1,304,408Zm150.062,61.792A23.711,23.711,0,0,1,434.42,480H237.58a24.275,24.275,0,0,1-6.227-.81,128.663,128.663,0,0,0,22.856-16.658A23.969,23.969,0,0,0,262.47,464H409.53a24,24,0,0,0,22.68-31.847l-64.65-186.77A8,8,0,0,0,360,240H312a8,8,0,0,0-7.56,5.383l-22.378,64.638A128.748,128.748,0,0,0,271.171,292.3l32.353-89.579A7.987,7.987,0,0,0,304,200V64h64V80h-8a8,8,0,0,0,0,16h8v16H344a8,8,0,0,0,0,16h24v16h-8a8,8,0,0,0,0,16h8v16H344a8,8,0,0,0,0,16h24v8a7.991,7.991,0,0,0,.476,2.717L457,447.846A23.711,23.711,0,0,1,454.062,469.792ZM242.035,306.9a8,8,0,0,0-6.165-2.9H100.13a8,8,0,0,0-6.165,2.9,96,96,0,1,0,148.07,0ZM168,448a79.993,79.993,0,0,1-63.993-128H231.993A79.993,79.993,0,0,1,168,448Zm-24-64a24,24,0,1,0,24,24A24.027,24.027,0,0,0,144,384Zm0,32a8,8,0,1,1,8-8A8.009,8.009,0,0,1,144,416Zm48-80a24,24,0,1,0,24,24A24.027,24.027,0,0,0,192,336Zm0,32a8,8,0,1,1,8-8A8.009,8.009,0,0,1,192,368Zm-72-8a8,8,0,1,1,8,8A8,8,0,0,1,120,360Zm96,48a8,8,0,1,1-8-8A8,8,0,0,1,216,408Zm144-24a24,24,0,1,0-24-24A24.027,24.027,0,0,0,360,384Zm0-32a8,8,0,1,1-8,8A8.009,8.009,0,0,1,360,352Zm24,56a8,8,0,1,1-8-8A8,8,0,0,1,384,408Z" style="fill:url(#linear-gradient)"/></svg>
